<?xml version="1.0" encoding="utf-8"?>
<!-- Generator: Adobe Illustrator 22.0.1, SVG Export Plug-In . SVG Version: 6.00 Build 0)  -->
<svg version="1.1" id="Layer_1" xmlns="http://www.w3.org/2000/svg" xmlns:xlink="http://www.w3.org/1999/xlink" x="0px" y="0px"
	 viewBox="0 0 20 60" style="enable-background:new 0 0 20 60;" xml:space="preserve">
<style type="text/css">
	.st0{fill:#808080;}
</style>
<g>
	<path class="st0" d="M5.2,27.8h9.6c0.2,0,0.3-0.1,0.5-0.2c0.1-0.1,0.2-0.3,0.2-0.5c0-0.2-0.1-0.3-0.2-0.5l-4.8-4.8
		c-0.1-0.1-0.3-0.2-0.5-0.2s-0.3,0.2-0.5,0.3l-4.8,4.8c-0.1,0.1-0.2,0.3-0.2,0.5c0,0.2,0.1,0.3,0.2,0.5C4.9,27.7,5.1,27.8,5.2,27.8z
		"/>
	<path class="st0" d="M14.8,32.2H5.2c-0.2,0-0.3,0.1-0.5,0.2c-0.1,0.1-0.2,0.3-0.2,0.5c0,0.2,0.1,0.3,0.2,0.5l4.8,4.8
		c0.1,0.1,0.3,0.2,0.5,0.2s0.3-0.1,0.5-0.2l4.8-4.8c0.1-0.1,0.2-0.3,0.2-0.5c0-0.2-0.1-0.3-0.2-0.5C15.1,32.3,15,32.2,14.8,32.2z"/>
</g>
</svg>
