<svg width="178" height="38" viewBox="0 0 178 38" fill="none" xmlns="http://www.w3.org/2000/svg">
<g clip-path="url(#clip0)">
<path d="M14.24 9.84L10.44 19.48L6.56 9.84H0L7.36 26.28L2.76 37.68H9.08L20.6 9.84H14.24Z" fill="#4A5685"/>
<path d="M30.0753 28.84C35.3953 28.84 40.2353 25 40.2353 19.12C40.2353 13.2 35.3953 9.36 30.0753 9.36C24.7553 9.36 19.9553 13.2 19.9553 19.12C19.9553 25 24.7553 28.84 30.0753 28.84ZM30.0753 23.36C27.7953 23.36 25.9553 21.68 25.9553 19.12C25.9553 16.56 27.7953 14.84 30.0753 14.84C32.3553 14.84 34.1953 16.56 34.1953 19.12C34.1953 21.68 32.3553 23.36 30.0753 23.36Z" fill="#4A5685"/>
<path d="M55.0022 9.84V19.2C55.0022 22.32 52.9622 23.16 51.4022 23.16C49.8822 23.16 48.1622 22.04 48.1622 19.2V9.84H42.2422V19.88C42.2422 25.6 44.6822 28.96 49.6422 28.96C51.3622 28.96 54.3622 27.88 55.0022 25.28V28.48H60.9222V9.84H55.0022Z" fill="#4A5685"/>
<path d="M64.2806 28.48H70.2006V0H64.2806V28.48Z" fill="#4A5685"/>
<path d="M76.5391 7C78.5391 7 80.1391 5.44 80.1391 3.56C80.1391 1.6 78.5391 0.119998 76.5391 0.119998C74.5391 0.119998 72.8591 1.6 72.8591 3.56C72.8591 5.44 74.5391 7 76.5391 7ZM73.5791 28.48H79.4991V9.84H73.5791V28.48Z" fill="#4A5685"/>
<path d="M94.1575 9.36C92.3975 9.36 89.4375 10.52 88.7975 13.16V9.84H82.8775V28.48H88.7975V19.12C88.7975 16 90.7975 15.16 92.3975 15.16C93.8775 15.16 95.6375 16.24 95.6375 19.12V28.48H101.558V18.44C101.558 12.72 99.1175 9.36 94.1575 9.36Z" fill="#4A5685"/>
<path d="M118.476 9.84V11.84C117.076 10.12 114.596 9.4 112.676 9.4C108.036 9.4 103.636 13.08 103.636 19.12C103.636 25.16 108.036 28.84 112.676 28.84C114.596 28.84 117.076 28.12 118.476 26.4V26.76C118.476 31.04 116.516 32.76 113.436 32.76C111.476 32.76 109.676 31.52 108.996 30L104.116 31.96C105.596 35.48 109.196 37.92 113.436 37.92C120.196 37.92 124.356 33.96 124.356 26.04V9.84H118.476ZM113.956 23.32C111.636 23.32 109.636 21.48 109.636 19.12C109.636 16.76 111.636 14.92 113.956 14.92C116.196 14.92 118.236 16.72 118.236 19.12C118.236 21.52 116.236 23.32 113.956 23.32Z" fill="#4A5685"/>
<path d="M140.244 9.84V19.2C140.244 22.32 138.204 23.16 136.644 23.16C135.124 23.16 133.404 22.04 133.404 19.2V9.84H127.484V19.88C127.484 25.6 129.924 28.96 134.884 28.96C136.604 28.96 139.604 27.88 140.244 25.28V28.48H146.164V9.84H140.244Z" fill="#4A5685"/>
<path d="M163.323 9.84V11.88C161.963 10.12 159.443 9.4 157.523 9.4C152.883 9.4 148.483 13.08 148.483 19.12C148.483 25.16 152.883 28.84 157.523 28.84C159.443 28.84 161.963 28.12 163.323 26.36V28.48H169.203V9.84H163.323ZM158.803 23.32C156.483 23.32 154.483 21.48 154.483 19.12C154.483 16.76 156.483 14.92 158.803 14.92C161.043 14.92 163.083 16.72 163.083 19.12C163.083 21.52 161.083 23.32 158.803 23.32Z" fill="#4A5685"/>
<path d="M172.571 28.48H178.491V0H172.571V28.48Z" fill="#4A5685"/>
</g>
<defs>
<clipPath id="clip0">
<rect width="178" height="38" fill="white"/>
</clipPath>
</defs>
</svg>
